<svg xmlns="http://www.w3.org/2000/svg" viewBox="4858.107 -2844 25.425 30.417">
  <defs>
    <style>
      .cls-1 {
        fill: #08734e;
      }
    </style>
  </defs>
  <path id="ic_headset_mic_24px" class="cls-1" d="M15.712,1A12.581,12.581,0,0,0,3,13.443v9.678a4.188,4.188,0,0,0,4.237,4.148h4.237V16.208H5.825V13.443a9.777,9.777,0,0,1,9.887-9.678A9.777,9.777,0,0,1,25.6,13.443v2.765H19.95V27.269H25.6v1.383H15.712v2.765h8.475a4.188,4.188,0,0,0,4.237-4.148V13.443A12.581,12.581,0,0,0,15.712,1Z" transform="translate(4855.107 -2845)"/>
</svg>
